<?xml version="1.0" encoding="utf-8"?>
<!-- Svg Vector Icons : http://www.onlinewebfonts.com/icon -->
<!DOCTYPE svg PUBLIC "-//W3C//DTD SVG 1.1//EN" "http://www.w3.org/Graphics/SVG/1.1/DTD/svg11.dtd">
<svg version="1.1" xmlns="http://www.w3.org/2000/svg" xmlns:xlink="http://www.w3.org/1999/xlink" x="0px" y="0px" viewBox="0 0 1000 1000" enable-background="new 0 0 1000 1000" xml:space="preserve">
<metadata> Svg Vector Icons : http://www.onlinewebfonts.com/icon </metadata>
<g><path d="M220,709.7h538.6c87.1,0,160.7-83.8,160.7-167.3c0-9.9,0-24.2,0-24.2c0-19.3,15.7-35,35-35h0.7c19.3,0,35,15.7,35,35c0,0,0,1.1,0,24.2c0,129-111.9,238-244.5,238H220v124.1c0,16.6-10,21-22.3,9.9L24.9,758.9c-8.2-7.4-8.2-19.4,0-26.8l172.8-155.5c12.3-11.1,22.3-6.6,22.3,9.9V709.7z M780,290.3H241.4c-87.1,0-160.7,83.8-160.7,167.3c0,9.9,0,24.2,0,24.2c0,19.3-15.7,35-35,35H45c-19.3,0-35-15.7-35-35c0,0,0-1.1,0-24.2c0-129,111.9-238,244.5-238H780V95.5c0-16.6,10-21,22.3-9.9l172.8,155.5c8.2,7.4,8.2,19.4,0,26.8L802.3,423.4C790,434.5,780,430,780,413.4V290.3L780,290.3z"/></g>
</svg>