<svg xmlns="http://www.w3.org/2000/svg" xmlns:xlink="http://www.w3.org/1999/xlink" width="500" zoomAndPan="magnify" viewBox="0 0 375 374.999991" height="500" preserveAspectRatio="xMidYMid meet" version="1.0"><path fill="#ffffff" d="M 187.5 12.503906 C 90.847656 12.503906 12.496094 90.855469 12.496094 187.496094 C 12.5 238.703125 53.9375 280.144531 105.144531 280.144531 L 105.144531 321.320312 C 105.144531 344.058594 123.578125 362.5 146.324219 362.5 L 228.675781 362.5 C 251.414062 362.5 269.855469 344.058594 269.855469 321.320312 L 269.855469 280.144531 C 321.0625 280.144531 362.492188 238.703125 362.492188 187.496094 C 362.492188 90.855469 284.152344 12.503906 187.5 12.503906 " fill-opacity="1" fill-rule="nonzero"/><path fill="#c4c0db" d="M 232.335938 352.429688 L 142.664062 352.429688 C 130.304688 352.429688 124.351562 342.359375 121.53125 326.175781 L 253.460938 326.175781 C 250.648438 342.359375 244.695312 352.429688 232.335938 352.429688 Z M 280.148438 39.027344 C 296.929688 53.40625 331 87.101562 340.851562 139.476562 C 345.242188 162.789062 351.628906 196.75 329.765625 222.328125 C 304.53125 251.835938 261.097656 247.464844 255.671875 246.828125 C 255.671875 271.214844 256.441406 294.375 255.054688 312.753906 L 119.945312 312.753906 C 118.558594 294.375 119.324219 271.214844 119.324219 246.828125 C 113.902344 247.464844 70.460938 251.835938 45.226562 222.328125 C 23.363281 196.75 29.753906 162.789062 34.144531 139.476562 C 44 87.101562 78.070312 53.40625 94.851562 39.027344 C 45.398438 69.949219 12.5 124.875 12.5 187.5 C 12.5 238.707031 53.9375 280.148438 105.144531 280.148438 L 105.144531 321.324219 C 105.144531 344.0625 123.578125 362.503906 146.324219 362.503906 L 228.679688 362.503906 C 251.414062 362.503906 269.855469 344.0625 269.855469 321.324219 L 269.855469 280.148438 C 321.0625 280.148438 362.496094 238.707031 362.496094 187.5 C 362.496094 124.882812 329.597656 69.945312 280.148438 39.027344 " fill-opacity="1" fill-rule="nonzero"/><path fill="#2c2971" d="M 174.632812 238.96875 L 200.367188 238.96875 C 207.476562 238.96875 213.234375 233.210938 213.234375 226.101562 C 213.234375 224.1875 212.804688 222.378906 212.054688 220.75 L 212.0625 220.75 L 211.859375 220.34375 C 211.789062 220.203125 211.71875 220.050781 211.636719 219.910156 L 198.972656 194.5625 C 198.914062 194.441406 198.851562 194.308594 198.78125 194.175781 L 198.761719 194.148438 C 196.566406 190.179688 192.351562 187.5 187.5 187.5 C 182.648438 187.5 178.433594 190.179688 176.238281 194.148438 L 176.21875 194.175781 C 176.148438 194.308594 176.085938 194.441406 176.027344 194.5625 L 163.351562 219.910156 C 163.273438 220.050781 163.210938 220.203125 163.140625 220.34375 L 162.9375 220.75 L 162.945312 220.75 C 162.195312 222.378906 161.765625 224.1875 161.765625 226.101562 C 161.765625 233.210938 167.523438 238.96875 174.632812 238.96875 " fill-opacity="1" fill-rule="nonzero"/><path fill="#2c2971" d="M 269.855469 305.882812 L 233.820312 305.882812 L 233.820312 269.855469 C 233.820312 267.007812 231.515625 264.703125 228.675781 264.703125 C 225.828125 264.703125 223.527344 267.007812 223.527344 269.855469 L 223.527344 305.882812 L 192.640625 305.882812 L 192.640625 269.855469 C 192.640625 267.007812 190.339844 264.703125 187.5 264.703125 C 184.660156 264.703125 182.347656 267.007812 182.347656 269.855469 L 182.347656 305.882812 L 151.472656 305.882812 L 151.472656 269.855469 C 151.472656 267.007812 149.164062 264.703125 146.324219 264.703125 C 143.484375 264.703125 141.171875 267.007812 141.171875 269.855469 L 141.171875 305.882812 L 105.144531 305.882812 L 105.144531 316.175781 L 141.171875 316.175781 L 141.171875 341.910156 C 141.171875 344.757812 143.484375 347.058594 146.324219 347.058594 C 149.164062 347.058594 151.472656 344.757812 151.472656 341.910156 L 151.472656 316.175781 L 182.347656 316.175781 L 182.347656 341.910156 C 182.347656 344.757812 184.660156 347.058594 187.5 347.058594 C 190.339844 347.058594 192.640625 344.757812 192.640625 341.910156 L 192.640625 316.175781 L 223.527344 316.175781 L 223.527344 341.910156 C 223.527344 344.757812 225.828125 347.058594 228.675781 347.058594 C 231.515625 347.058594 233.820312 344.757812 233.820312 341.910156 L 233.820312 316.175781 L 269.855469 316.175781 L 269.855469 305.882812 " fill-opacity="1" fill-rule="nonzero"/><path fill="#c4c0db" d="M 287.007812 142.890625 C 287.007812 163.742188 270.109375 180.636719 249.261719 180.636719 C 228.414062 180.636719 211.515625 163.742188 211.515625 142.890625 C 211.515625 122.050781 228.414062 105.152344 249.261719 105.152344 C 270.109375 105.152344 287.007812 122.050781 287.007812 142.890625 " fill-opacity="1" fill-rule="nonzero"/><path fill="#c4c0db" d="M 287.007812 180.636719 C 287.007812 201.488281 270.109375 218.386719 249.261719 218.386719 C 228.414062 218.386719 211.515625 201.488281 211.515625 180.636719 C 211.515625 159.789062 228.414062 142.890625 249.261719 142.890625 C 270.109375 142.890625 287.007812 159.789062 287.007812 180.636719 " fill-opacity="1" fill-rule="nonzero"/><path fill="#c4c0db" d="M 211.515625 180.636719 L 287.007812 180.636719 L 287.007812 142.890625 L 211.515625 142.890625 Z M 211.515625 180.636719 " fill-opacity="1" fill-rule="nonzero"/><path fill="#2c2971" d="M 280.148438 136.03125 C 280.148438 153.085938 266.320312 166.914062 249.261719 166.914062 C 232.207031 166.914062 218.375 153.085938 218.375 136.03125 C 218.375 118.972656 232.207031 105.152344 249.261719 105.152344 C 266.320312 105.152344 280.148438 118.972656 280.148438 136.03125 " fill-opacity="1" fill-rule="nonzero"/><path fill="#2c2971" d="M 280.148438 166.914062 C 280.148438 183.972656 266.320312 197.792969 249.261719 197.792969 C 232.207031 197.792969 218.375 183.972656 218.375 166.914062 C 218.375 149.859375 232.207031 136.03125 249.261719 136.03125 C 266.320312 136.03125 280.148438 149.859375 280.148438 166.914062 " fill-opacity="1" fill-rule="nonzero"/><path fill="#2c2971" d="M 218.375 166.914062 L 280.148438 166.914062 L 280.148438 136.03125 L 218.375 136.03125 Z M 218.375 166.914062 " fill-opacity="1" fill-rule="nonzero"/><path fill="#c4c0db" d="M 87.992188 142.890625 C 87.992188 163.742188 104.890625 180.636719 125.738281 180.636719 C 146.578125 180.636719 163.476562 163.742188 163.476562 142.890625 C 163.476562 122.050781 146.578125 105.152344 125.738281 105.152344 C 104.890625 105.152344 87.992188 122.050781 87.992188 142.890625 " fill-opacity="1" fill-rule="nonzero"/><path fill="#c4c0db" d="M 87.992188 180.636719 C 87.992188 201.488281 104.890625 218.386719 125.738281 218.386719 C 146.578125 218.386719 163.476562 201.488281 163.476562 180.636719 C 163.476562 159.789062 146.578125 142.890625 125.738281 142.890625 C 104.890625 142.890625 87.992188 159.789062 87.992188 180.636719 " fill-opacity="1" fill-rule="nonzero"/><path fill="#c4c0db" d="M 87.992188 180.636719 L 163.476562 180.636719 L 163.476562 142.890625 L 87.992188 142.890625 Z M 87.992188 180.636719 " fill-opacity="1" fill-rule="nonzero"/><path fill="#2c2971" d="M 94.851562 136.03125 C 94.851562 153.085938 108.679688 166.914062 125.738281 166.914062 C 142.792969 166.914062 156.613281 153.085938 156.613281 136.03125 C 156.613281 118.972656 142.792969 105.152344 125.738281 105.152344 C 108.679688 105.152344 94.851562 118.972656 94.851562 136.03125 " fill-opacity="1" fill-rule="nonzero"/><path fill="#2c2971" d="M 94.851562 166.914062 C 94.851562 183.972656 108.679688 197.792969 125.738281 197.792969 C 142.792969 197.792969 156.613281 183.972656 156.613281 166.914062 C 156.613281 149.859375 142.792969 136.03125 125.738281 136.03125 C 108.679688 136.03125 94.851562 149.859375 94.851562 166.914062 " fill-opacity="1" fill-rule="nonzero"/><path fill="#2c2971" d="M 94.851562 166.914062 L 156.613281 166.914062 L 156.613281 136.03125 L 94.851562 136.03125 Z M 94.851562 166.914062 " fill-opacity="1" fill-rule="nonzero"/></svg>